<mxfile host="Electron" agent="Mozilla/5.0 (Macintosh; Intel Mac OS X 10_15_7) AppleWebKit/537.36 (KHTML, like Gecko) draw.io/26.0.9 Chrome/128.0.6613.186 Electron/32.2.5 Safari/537.36" version="26.0.9">
  <diagram name="Page-1" id="izxUmsnu0kVNnpeLAt6E">
    <mxGraphModel dx="987" dy="699" grid="1" gridSize="10" guides="1" tooltips="1" connect="1" arrows="1" fold="1" page="1" pageScale="1" pageWidth="1169" pageHeight="827" math="0" shadow="0">
      <root>
        <mxCell id="0" />
        <mxCell id="1" parent="0" />
        <mxCell id="rrvLgDH6fRj4qbCEKxHJ-6" value="" style="group" vertex="1" connectable="0" parent="1">
          <mxGeometry x="500" y="160.00000000000023" width="84" height="130" as="geometry" />
        </mxCell>
        <mxCell id="rrvLgDH6fRj4qbCEKxHJ-7" style="vsdxID=53;fillColor=none;gradientColor=none;strokeColor=none;spacingTop=-3;spacingBottom=-3;spacingLeft=-3;spacingRight=-3;points=[];labelBackgroundColor=none;rounded=0;html=1;whiteSpace=wrap;" vertex="1" parent="rrvLgDH6fRj4qbCEKxHJ-6">
          <mxGeometry width="84" height="84" as="geometry" />
        </mxCell>
        <mxCell id="rrvLgDH6fRj4qbCEKxHJ-8" style="vsdxID=54;fillColor=none;gradientColor=none;strokeColor=none;spacingTop=-3;spacingBottom=-3;spacingLeft=-3;spacingRight=-3;points=[];labelBackgroundColor=none;rounded=0;html=1;whiteSpace=wrap;" vertex="1" parent="rrvLgDH6fRj4qbCEKxHJ-7">
          <mxGeometry width="84" height="84" as="geometry" />
        </mxCell>
        <mxCell id="rrvLgDH6fRj4qbCEKxHJ-9" style="vsdxID=55;fillColor=#FFFFFF;gradientColor=none;shape=stencil(lZPRDoIwDEW/Zq9LWUHCs+J/EAVZRCATFP/eYYdsAzW+td2922mzMtxey6zNmYBrp5pzfpfHrmS4Y0LIusyV7HTEMGW4LRqVn1TT10fK22xUjtGluY03DOSLOEajScCDCknC482rsif9oVdkCEggeIjGEfgWGASVwChMmsQchVGgqzBpEvLQfrWStUUJDuKb+QMhuHgz8ERnteDyTnDWVBzcVTiNvnFnCN/o9Cyi2CUEFy8Ab3xWB+hLfOJVxFnuI3+AnA1L6kEsG/HJB1zOxkNfBf39Hf/V62D++4WsKlod+9zfFV2iPcP0CQ==);strokeColor=none;spacingTop=-3;spacingBottom=-3;spacingLeft=-3;spacingRight=-3;points=[];labelBackgroundColor=none;rounded=0;html=1;whiteSpace=wrap;" vertex="1" parent="rrvLgDH6fRj4qbCEKxHJ-8">
          <mxGeometry x="1" y="1" width="82" height="82" as="geometry" />
        </mxCell>
        <mxCell id="rrvLgDH6fRj4qbCEKxHJ-10" style="vsdxID=56;fillColor=#FFFFFF;gradientColor=none;shape=stencil(lZXRdoIwDIafprc9aUMpvXb6Hp6JgzMmHsSNvf1gLbQNCHpX4h/88iehDHe34njNmYRb29Sf+U95aguGb0zK8lLkTdn2J4Z7hrtz3eQfTX2/nOzz9Tgoh9NX/T28obN5BjmqIUvCr41Ijtl/4GD17/fGJgiXoXhiXIYgKdBJJ9IcR5ELJVy6SIdzkQulPMHwz6vyEsIGCRN+JlZpgxRfgFEEN6jJV5ClhDfwCqlqEbgvR8S8VE95e5c0wdU8lTFu77cmtIprEdMGIs+v9GPYIGG5GZQ1SBCzHstZPXI2LDhzCZdnkIzB5sy+qt/aCXihxbBuWaZiyyD2C6hZdAghdmp9YSAi21wWYHTyREInb+J3EQHANro5Sh41R8U7TeQLGy2Ih56BQgXbPJWCVPPcenj9c9thDNcp/U5O3Ry5Um5EjErsXPjorLu5Nrr9wV8E57Kq7D0S/k4vjj5kLx3c/wE=);strokeColor=none;spacingTop=-3;spacingBottom=-3;spacingLeft=-3;spacingRight=-3;points=[];labelBackgroundColor=none;rounded=0;html=1;whiteSpace=wrap;" vertex="1" parent="rrvLgDH6fRj4qbCEKxHJ-8">
          <mxGeometry width="84" height="84" as="geometry" />
        </mxCell>
        <mxCell id="rrvLgDH6fRj4qbCEKxHJ-11" style="vsdxID=57;fillColor=none;gradientColor=none;strokeColor=none;spacingTop=-3;spacingBottom=-3;spacingLeft=-3;spacingRight=-3;points=[];labelBackgroundColor=none;rounded=0;html=1;whiteSpace=wrap;" vertex="1" parent="rrvLgDH6fRj4qbCEKxHJ-7">
          <mxGeometry x="2" y="2" width="80" height="80" as="geometry" />
        </mxCell>
        <mxCell id="rrvLgDH6fRj4qbCEKxHJ-12" style="vsdxID=58;fillColor=#2d5967;gradientColor=none;shape=stencil(lZXLcoMwDEW/xlvGWDzidZr8R6YhhSmFDCEt+ftCbbAkB+Lu/LgyR/IVFrC/ladrIZS89V37WfxU574U8CaUqpqy6Kp+HAk4CNhf2q746Np7czbz62lSTqOv9ns6YTBxOo3SeIpS8mFW5N/saMR11SBxEqlkXft+78zJsdmMI62tOsZyOSgyfdipsrtAd2H5drpOJgmWzra4JIXSO0qFsOcVKSkaqgNQyVO4scZ5RgCZnBPqXSRjSukYONRMueQBXAAOY6OETv+84B6kno9bIBVF1LnLm175AL774KX9XniVGTtzNVzJ38so88puneRSSr2UxihbqK20nCqsszw9hwWvuzCImkV5wmkpKlKE2QQFhPkEBdiVhEPyhoPFWesdB5uUfstxfcDlIwx01+z6EwqKFUF/rgCf/jtgHLj//aWqa/Nc4H3+PoxL5m2Bwy8=);strokeColor=none;spacingTop=-3;spacingBottom=-3;spacingLeft=-3;spacingRight=-3;points=[];labelBackgroundColor=none;rounded=0;html=1;whiteSpace=wrap;" vertex="1" parent="rrvLgDH6fRj4qbCEKxHJ-11">
          <mxGeometry width="80" height="80" as="geometry" />
        </mxCell>
        <mxCell id="rrvLgDH6fRj4qbCEKxHJ-13" style="vsdxID=59;fillColor=#2d5967;gradientColor=none;shape=stencil(pZJbDsIgFERXwy+hQBW/a91Hk1IhIjQUX7sXcmNsNaWx/s1wz32EDGLVoJpeIkqG4N1J3nQbFGJ7RKm2SnodokKsRqzqnJdH7y62Bd83iUzq7K5pwh36SOqg5AGuIOAPgBptR+iruArOoCvB7PosOv0BjkUxpTdYlPOjdxyXf/GCY7qd57/u+ZVfuGeZj+Idl04bA2kb1z/jFZ8gmqx+Ag==);strokeColor=none;spacingTop=-3;spacingBottom=-3;spacingLeft=-3;spacingRight=-3;points=[];labelBackgroundColor=none;rounded=0;html=1;whiteSpace=wrap;" vertex="1" parent="rrvLgDH6fRj4qbCEKxHJ-11">
          <mxGeometry x="11" y="51" width="58" height="17" as="geometry" />
        </mxCell>
        <mxCell id="rrvLgDH6fRj4qbCEKxHJ-14" style="vsdxID=60;fillColor=#2d5967;gradientColor=none;shape=stencil(jVLRDoMgDPwaXg2UOeezc/9hJk4ypwZ107+fpCRClxnf2nLH9eCYzIa66BUDPoyme6qPLseaySsD0G2tjB7XismcyazqjHqYbmpL7PvCIm316t72hhl5MbcU4Au2gmN/Q+x9MggWeJwk0Vk4gggZfAYyWGAjgcNIinGDUxql6Z7yxnADgEheQmV/OzfioW5MZHfNWoUkFCVWiVF/JRkijtokJv2ng9+t6Iv/s0l+tdHt4QSsxRadSjcNJs8/p1FbRxhTmX8B);strokeColor=none;spacingTop=-3;spacingBottom=-3;spacingLeft=-3;spacingRight=-3;points=[];labelBackgroundColor=none;rounded=0;html=1;whiteSpace=wrap;" vertex="1" parent="rrvLgDH6fRj4qbCEKxHJ-11">
          <mxGeometry x="57" y="58" width="4" height="4" as="geometry" />
        </mxCell>
        <mxCell id="rrvLgDH6fRj4qbCEKxHJ-15" style="vsdxID=61;fillColor=#2d5967;gradientColor=none;shape=stencil(pZLbDsIgEES/Zl8JZW3E51r/o0mpEBEa2nr5e0Fi2qrpRd92Z8+QCRnArJFFLYDRpnX2JK6qbCXgHhhTRgqnWj8B5oBZZZ04OtuZMu51Ecgwne0lvHCLvh0nnAcXo/eo0Od2iLBWZgDT38CETqCv4yJ4VdoZePwPHEmyGcFBSSdyp2SL/xl65avhM9Jqw0ykBQY/9NWplNaxecP7e9W8FGuK+QM=);strokeColor=none;spacingTop=-3;spacingBottom=-3;spacingLeft=-3;spacingRight=-3;points=[];labelBackgroundColor=none;rounded=0;html=1;whiteSpace=wrap;" vertex="1" parent="rrvLgDH6fRj4qbCEKxHJ-11">
          <mxGeometry x="11" y="11" width="17" height="17" as="geometry" />
        </mxCell>
        <mxCell id="rrvLgDH6fRj4qbCEKxHJ-16" style="vsdxID=62;fillColor=#2d5967;gradientColor=none;shape=stencil(pZJJDoMwDEVP422UxGXYU3oPJEKJmhIUoMPtm8iqCnSE7vzj920r+oBZVxetAsm73tmDOuuyrwG3IKVuauV07yvAHDCrrFN7Z4emJN0WgQzV0Z7ChAv5BOfBI/mVNKkdoUY3I3QleN/wEp2vXwSvRac/kG6YTCZwikxEH2bHLI3/M4iIJfje8HzSYsOXk34w+OIRmkobQ5kb9+ch808UUMxv);strokeColor=none;spacingTop=-3;spacingBottom=-3;spacingLeft=-3;spacingRight=-3;points=[];labelBackgroundColor=none;rounded=0;html=1;whiteSpace=wrap;" vertex="1" parent="rrvLgDH6fRj4qbCEKxHJ-11">
          <mxGeometry x="31" y="11" width="17" height="17" as="geometry" />
        </mxCell>
        <mxCell id="rrvLgDH6fRj4qbCEKxHJ-17" style="vsdxID=63;fillColor=#2d5967;gradientColor=none;shape=stencil(pZLbDsIgEES/Zl8JZW3E51r/o0mpEBEa2nr5e0Fi2qrpRd92Z8+QCRnArJFFLYDRpnX2JK6qbCXgHhhTRgqnWj8B5oBZZZ04OtuZMu51Ecgwne0lvHCLvh0nnAcXo/eo0Od2iLBWZgDT38CETqCv4yJ4VdoZePwPHEmyGcFBSSdyp2SL/xl65avhM9Jqw0ykBQY/9NWplNaxecP7e9W8FGuK+QM=);strokeColor=none;spacingTop=-3;spacingBottom=-3;spacingLeft=-3;spacingRight=-3;points=[];labelBackgroundColor=none;rounded=0;html=1;whiteSpace=wrap;" vertex="1" parent="rrvLgDH6fRj4qbCEKxHJ-11">
          <mxGeometry x="11" y="31" width="17" height="17" as="geometry" />
        </mxCell>
        <mxCell id="rrvLgDH6fRj4qbCEKxHJ-18" style="vsdxID=64;fillColor=#2d5967;gradientColor=none;shape=stencil(pZJJDoMwDEVP422UxGXYU3oPJEKJmhIUoMPtm8iqCnSE7vzj920r+oBZVxetAsm73tmDOuuyrwG3IKVuauV07yvAHDCrrFN7Z4emJN0WgQzV0Z7ChAv5BOfBI/mVNKkdoUY3I3QleN/wEp2vXwSvRac/kG6YTCZwikxEH2bHLI3/M4iIJfje8HzSYsOXk34w+OIRmkobQ5kb9+ch808UUMxv);strokeColor=none;spacingTop=-3;spacingBottom=-3;spacingLeft=-3;spacingRight=-3;points=[];labelBackgroundColor=none;rounded=0;html=1;whiteSpace=wrap;" vertex="1" parent="rrvLgDH6fRj4qbCEKxHJ-11">
          <mxGeometry x="31" y="31" width="17" height="17" as="geometry" />
        </mxCell>
        <mxCell id="rrvLgDH6fRj4qbCEKxHJ-19" style="vsdxID=65;fillColor=#2d5967;gradientColor=none;shape=stencil(pZJJDoMwDEVP422UxGXYU3oPJEKJmhIUoMPtm8iqCnSE7vzj920r+oBZVxetAsm73tmDOuuyrwG3IKVuauV07yvAHDCrrFN7Z4emJN0WgQzV0Z7ChAv5BOfBI/mVNKkdoUY3I3QleN/wEp2vXwSvRac/kG6YTCZwikxEH2bHLI3/M4iIJfje8HzSYsOXk34w+OIRmkobQ5kb9+ch808UUMxv);strokeColor=none;spacingTop=-3;spacingBottom=-3;spacingLeft=-3;spacingRight=-3;points=[];labelBackgroundColor=none;rounded=0;html=1;whiteSpace=wrap;" vertex="1" parent="rrvLgDH6fRj4qbCEKxHJ-11">
          <mxGeometry x="51" y="11" width="17" height="17" as="geometry" />
        </mxCell>
        <mxCell id="rrvLgDH6fRj4qbCEKxHJ-20" style="vsdxID=66;fillColor=#2d5967;gradientColor=none;shape=stencil(pZJJDoMwDEVP422UxGXYU3oPJEKJmhIUoMPtm8iqCnSE7vzj920r+oBZVxetAsm73tmDOuuyrwG3IKVuauV07yvAHDCrrFN7Z4emJN0WgQzV0Z7ChAv5BOfBI/mVNKkdoUY3I3QleN/wEp2vXwSvRac/kG6YTCZwikxEH2bHLI3/M4iIJfje8HzSYsOXk34w+OIRmkobQ5kb9+ch808UUMxv);strokeColor=none;spacingTop=-3;spacingBottom=-3;spacingLeft=-3;spacingRight=-3;points=[];labelBackgroundColor=none;rounded=0;html=1;whiteSpace=wrap;" vertex="1" parent="rrvLgDH6fRj4qbCEKxHJ-11">
          <mxGeometry x="51" y="31" width="17" height="17" as="geometry" />
        </mxCell>
        <mxCell id="rrvLgDH6fRj4qbCEKxHJ-21" value="&lt;div style=&quot;&quot;&gt;&lt;p style=&quot;margin: 0px; text-indent: 0px; direction: ltr;&quot;&gt;&lt;font face=&quot;Oracle Sans&quot;&gt;&lt;span style=&quot;font-size: 16.93px;&quot;&gt;React&lt;/span&gt;&lt;/font&gt;&lt;/p&gt;&lt;p style=&quot;margin: 0px; text-indent: 0px; direction: ltr;&quot;&gt;&lt;font face=&quot;Oracle Sans&quot;&gt;&lt;span style=&quot;font-size: 16.93px;&quot;&gt;Frontend&lt;/span&gt;&lt;/font&gt;&lt;/p&gt;&lt;/div&gt;" style="verticalAlign=middle;align=center;vsdxID=68;fillColor=none;gradientColor=none;shape=stencil(nZBLDoAgDERP0z3SIyjew0SURgSD+Lu9kMZoXLhwN9O+tukAlrNpJg1SzDH4QW/URgNYgZTkjA4UkwJUgGXng+6DX1zLfmoymdXo17xh5zmRJ6Q42BWCfc2oJfdAr+Yv+AP9Cb7OJ3H/2JG1HNGz/84klThPVCc=);strokeColor=none;spacingTop=-3;spacingBottom=-3;spacingLeft=-3;spacingRight=-3;points=[];labelBackgroundColor=none;rounded=0;html=1;whiteSpace=wrap;" vertex="1" parent="rrvLgDH6fRj4qbCEKxHJ-6">
          <mxGeometry x="4" y="89" width="76" height="41" as="geometry" />
        </mxCell>
        <mxCell id="rrvLgDH6fRj4qbCEKxHJ-22" value="" style="group" vertex="1" connectable="0" parent="1">
          <mxGeometry x="500" y="360.0000000000002" width="84" height="130" as="geometry" />
        </mxCell>
        <mxCell id="rrvLgDH6fRj4qbCEKxHJ-23" style="vsdxID=53;fillColor=none;gradientColor=none;strokeColor=none;spacingTop=-3;spacingBottom=-3;spacingLeft=-3;spacingRight=-3;points=[];labelBackgroundColor=none;rounded=0;html=1;whiteSpace=wrap;" vertex="1" parent="rrvLgDH6fRj4qbCEKxHJ-22">
          <mxGeometry width="84" height="84" as="geometry" />
        </mxCell>
        <mxCell id="rrvLgDH6fRj4qbCEKxHJ-24" style="vsdxID=54;fillColor=none;gradientColor=none;strokeColor=none;spacingTop=-3;spacingBottom=-3;spacingLeft=-3;spacingRight=-3;points=[];labelBackgroundColor=none;rounded=0;html=1;whiteSpace=wrap;" vertex="1" parent="rrvLgDH6fRj4qbCEKxHJ-23">
          <mxGeometry width="84" height="84" as="geometry" />
        </mxCell>
        <mxCell id="rrvLgDH6fRj4qbCEKxHJ-25" style="vsdxID=55;fillColor=#FFFFFF;gradientColor=none;shape=stencil(lZPRDoIwDEW/Zq9LWUHCs+J/EAVZRCATFP/eYYdsAzW+td2922mzMtxey6zNmYBrp5pzfpfHrmS4Y0LIusyV7HTEMGW4LRqVn1TT10fK22xUjtGluY03DOSLOEajScCDCknC482rsif9oVdkCEggeIjGEfgWGASVwChMmsQchVGgqzBpEvLQfrWStUUJDuKb+QMhuHgz8ERnteDyTnDWVBzcVTiNvnFnCN/o9Cyi2CUEFy8Ab3xWB+hLfOJVxFnuI3+AnA1L6kEsG/HJB1zOxkNfBf39Hf/V62D++4WsKlod+9zfFV2iPcP0CQ==);strokeColor=none;spacingTop=-3;spacingBottom=-3;spacingLeft=-3;spacingRight=-3;points=[];labelBackgroundColor=none;rounded=0;html=1;whiteSpace=wrap;" vertex="1" parent="rrvLgDH6fRj4qbCEKxHJ-24">
          <mxGeometry x="1" y="1" width="82" height="82" as="geometry" />
        </mxCell>
        <mxCell id="rrvLgDH6fRj4qbCEKxHJ-26" style="vsdxID=56;fillColor=#FFFFFF;gradientColor=none;shape=stencil(lZXRdoIwDIafprc9aUMpvXb6Hp6JgzMmHsSNvf1gLbQNCHpX4h/88iehDHe34njNmYRb29Sf+U95aguGb0zK8lLkTdn2J4Z7hrtz3eQfTX2/nOzz9Tgoh9NX/T28obN5BjmqIUvCr41Ijtl/4GD17/fGJgiXoXhiXIYgKdBJJ9IcR5ELJVy6SIdzkQulPMHwz6vyEsIGCRN+JlZpgxRfgFEEN6jJV5ClhDfwCqlqEbgvR8S8VE95e5c0wdU8lTFu77cmtIprEdMGIs+v9GPYIGG5GZQ1SBCzHstZPXI2LDhzCZdnkIzB5sy+qt/aCXihxbBuWaZiyyD2C6hZdAghdmp9YSAi21wWYHTyREInb+J3EQHANro5Sh41R8U7TeQLGy2Ih56BQgXbPJWCVPPcenj9c9thDNcp/U5O3Ry5Um5EjErsXPjorLu5Nrr9wV8E57Kq7D0S/k4vjj5kLx3c/wE=);strokeColor=none;spacingTop=-3;spacingBottom=-3;spacingLeft=-3;spacingRight=-3;points=[];labelBackgroundColor=none;rounded=0;html=1;whiteSpace=wrap;" vertex="1" parent="rrvLgDH6fRj4qbCEKxHJ-24">
          <mxGeometry width="84" height="84" as="geometry" />
        </mxCell>
        <mxCell id="rrvLgDH6fRj4qbCEKxHJ-27" style="vsdxID=57;fillColor=none;gradientColor=none;strokeColor=none;spacingTop=-3;spacingBottom=-3;spacingLeft=-3;spacingRight=-3;points=[];labelBackgroundColor=none;rounded=0;html=1;whiteSpace=wrap;" vertex="1" parent="rrvLgDH6fRj4qbCEKxHJ-23">
          <mxGeometry x="2" y="2" width="80" height="80" as="geometry" />
        </mxCell>
        <mxCell id="rrvLgDH6fRj4qbCEKxHJ-28" style="vsdxID=58;fillColor=#2d5967;gradientColor=none;shape=stencil(lZXLcoMwDEW/xlvGWDzidZr8R6YhhSmFDCEt+ftCbbAkB+Lu/LgyR/IVFrC/ladrIZS89V37WfxU574U8CaUqpqy6Kp+HAk4CNhf2q746Np7czbz62lSTqOv9ns6YTBxOo3SeIpS8mFW5N/saMR11SBxEqlkXft+78zJsdmMI62tOsZyOSgyfdipsrtAd2H5drpOJgmWzra4JIXSO0qFsOcVKSkaqgNQyVO4scZ5RgCZnBPqXSRjSukYONRMueQBXAAOY6OETv+84B6kno9bIBVF1LnLm175AL774KX9XniVGTtzNVzJ38so88puneRSSr2UxihbqK20nCqsszw9hwWvuzCImkV5wmkpKlKE2QQFhPkEBdiVhEPyhoPFWesdB5uUfstxfcDlIwx01+z6EwqKFUF/rgCf/jtgHLj//aWqa/Nc4H3+PoxL5m2Bwy8=);strokeColor=none;spacingTop=-3;spacingBottom=-3;spacingLeft=-3;spacingRight=-3;points=[];labelBackgroundColor=none;rounded=0;html=1;whiteSpace=wrap;" vertex="1" parent="rrvLgDH6fRj4qbCEKxHJ-27">
          <mxGeometry width="80" height="80" as="geometry" />
        </mxCell>
        <mxCell id="rrvLgDH6fRj4qbCEKxHJ-29" style="vsdxID=59;fillColor=#2d5967;gradientColor=none;shape=stencil(pZJbDsIgFERXwy+hQBW/a91Hk1IhIjQUX7sXcmNsNaWx/s1wz32EDGLVoJpeIkqG4N1J3nQbFGJ7RKm2SnodokKsRqzqnJdH7y62Bd83iUzq7K5pwh36SOqg5AGuIOAPgBptR+iruArOoCvB7PosOv0BjkUxpTdYlPOjdxyXf/GCY7qd57/u+ZVfuGeZj+Idl04bA2kb1z/jFZ8gmqx+Ag==);strokeColor=none;spacingTop=-3;spacingBottom=-3;spacingLeft=-3;spacingRight=-3;points=[];labelBackgroundColor=none;rounded=0;html=1;whiteSpace=wrap;" vertex="1" parent="rrvLgDH6fRj4qbCEKxHJ-27">
          <mxGeometry x="11" y="51" width="58" height="17" as="geometry" />
        </mxCell>
        <mxCell id="rrvLgDH6fRj4qbCEKxHJ-30" style="vsdxID=60;fillColor=#2d5967;gradientColor=none;shape=stencil(jVLRDoMgDPwaXg2UOeezc/9hJk4ypwZ107+fpCRClxnf2nLH9eCYzIa66BUDPoyme6qPLseaySsD0G2tjB7XismcyazqjHqYbmpL7PvCIm316t72hhl5MbcU4Au2gmN/Q+x9MggWeJwk0Vk4gggZfAYyWGAjgcNIinGDUxql6Z7yxnADgEheQmV/OzfioW5MZHfNWoUkFCVWiVF/JRkijtokJv2ng9+t6Iv/s0l+tdHt4QSsxRadSjcNJs8/p1FbRxhTmX8B);strokeColor=none;spacingTop=-3;spacingBottom=-3;spacingLeft=-3;spacingRight=-3;points=[];labelBackgroundColor=none;rounded=0;html=1;whiteSpace=wrap;" vertex="1" parent="rrvLgDH6fRj4qbCEKxHJ-27">
          <mxGeometry x="57" y="58" width="4" height="4" as="geometry" />
        </mxCell>
        <mxCell id="rrvLgDH6fRj4qbCEKxHJ-31" style="vsdxID=61;fillColor=#2d5967;gradientColor=none;shape=stencil(pZLbDsIgEES/Zl8JZW3E51r/o0mpEBEa2nr5e0Fi2qrpRd92Z8+QCRnArJFFLYDRpnX2JK6qbCXgHhhTRgqnWj8B5oBZZZ04OtuZMu51Ecgwne0lvHCLvh0nnAcXo/eo0Od2iLBWZgDT38CETqCv4yJ4VdoZePwPHEmyGcFBSSdyp2SL/xl65avhM9Jqw0ykBQY/9NWplNaxecP7e9W8FGuK+QM=);strokeColor=none;spacingTop=-3;spacingBottom=-3;spacingLeft=-3;spacingRight=-3;points=[];labelBackgroundColor=none;rounded=0;html=1;whiteSpace=wrap;" vertex="1" parent="rrvLgDH6fRj4qbCEKxHJ-27">
          <mxGeometry x="11" y="11" width="17" height="17" as="geometry" />
        </mxCell>
        <mxCell id="rrvLgDH6fRj4qbCEKxHJ-32" style="vsdxID=62;fillColor=#2d5967;gradientColor=none;shape=stencil(pZJJDoMwDEVP422UxGXYU3oPJEKJmhIUoMPtm8iqCnSE7vzj920r+oBZVxetAsm73tmDOuuyrwG3IKVuauV07yvAHDCrrFN7Z4emJN0WgQzV0Z7ChAv5BOfBI/mVNKkdoUY3I3QleN/wEp2vXwSvRac/kG6YTCZwikxEH2bHLI3/M4iIJfje8HzSYsOXk34w+OIRmkobQ5kb9+ch808UUMxv);strokeColor=none;spacingTop=-3;spacingBottom=-3;spacingLeft=-3;spacingRight=-3;points=[];labelBackgroundColor=none;rounded=0;html=1;whiteSpace=wrap;" vertex="1" parent="rrvLgDH6fRj4qbCEKxHJ-27">
          <mxGeometry x="31" y="11" width="17" height="17" as="geometry" />
        </mxCell>
        <mxCell id="rrvLgDH6fRj4qbCEKxHJ-33" style="vsdxID=63;fillColor=#2d5967;gradientColor=none;shape=stencil(pZLbDsIgEES/Zl8JZW3E51r/o0mpEBEa2nr5e0Fi2qrpRd92Z8+QCRnArJFFLYDRpnX2JK6qbCXgHhhTRgqnWj8B5oBZZZ04OtuZMu51Ecgwne0lvHCLvh0nnAcXo/eo0Od2iLBWZgDT38CETqCv4yJ4VdoZePwPHEmyGcFBSSdyp2SL/xl65avhM9Jqw0ykBQY/9NWplNaxecP7e9W8FGuK+QM=);strokeColor=none;spacingTop=-3;spacingBottom=-3;spacingLeft=-3;spacingRight=-3;points=[];labelBackgroundColor=none;rounded=0;html=1;whiteSpace=wrap;" vertex="1" parent="rrvLgDH6fRj4qbCEKxHJ-27">
          <mxGeometry x="11" y="31" width="17" height="17" as="geometry" />
        </mxCell>
        <mxCell id="rrvLgDH6fRj4qbCEKxHJ-34" style="vsdxID=64;fillColor=#2d5967;gradientColor=none;shape=stencil(pZJJDoMwDEVP422UxGXYU3oPJEKJmhIUoMPtm8iqCnSE7vzj920r+oBZVxetAsm73tmDOuuyrwG3IKVuauV07yvAHDCrrFN7Z4emJN0WgQzV0Z7ChAv5BOfBI/mVNKkdoUY3I3QleN/wEp2vXwSvRac/kG6YTCZwikxEH2bHLI3/M4iIJfje8HzSYsOXk34w+OIRmkobQ5kb9+ch808UUMxv);strokeColor=none;spacingTop=-3;spacingBottom=-3;spacingLeft=-3;spacingRight=-3;points=[];labelBackgroundColor=none;rounded=0;html=1;whiteSpace=wrap;" vertex="1" parent="rrvLgDH6fRj4qbCEKxHJ-27">
          <mxGeometry x="31" y="31" width="17" height="17" as="geometry" />
        </mxCell>
        <mxCell id="rrvLgDH6fRj4qbCEKxHJ-35" style="vsdxID=65;fillColor=#2d5967;gradientColor=none;shape=stencil(pZJJDoMwDEVP422UxGXYU3oPJEKJmhIUoMPtm8iqCnSE7vzj920r+oBZVxetAsm73tmDOuuyrwG3IKVuauV07yvAHDCrrFN7Z4emJN0WgQzV0Z7ChAv5BOfBI/mVNKkdoUY3I3QleN/wEp2vXwSvRac/kG6YTCZwikxEH2bHLI3/M4iIJfje8HzSYsOXk34w+OIRmkobQ5kb9+ch808UUMxv);strokeColor=none;spacingTop=-3;spacingBottom=-3;spacingLeft=-3;spacingRight=-3;points=[];labelBackgroundColor=none;rounded=0;html=1;whiteSpace=wrap;" vertex="1" parent="rrvLgDH6fRj4qbCEKxHJ-27">
          <mxGeometry x="51" y="11" width="17" height="17" as="geometry" />
        </mxCell>
        <mxCell id="rrvLgDH6fRj4qbCEKxHJ-36" style="vsdxID=66;fillColor=#2d5967;gradientColor=none;shape=stencil(pZJJDoMwDEVP422UxGXYU3oPJEKJmhIUoMPtm8iqCnSE7vzj920r+oBZVxetAsm73tmDOuuyrwG3IKVuauV07yvAHDCrrFN7Z4emJN0WgQzV0Z7ChAv5BOfBI/mVNKkdoUY3I3QleN/wEp2vXwSvRac/kG6YTCZwikxEH2bHLI3/M4iIJfje8HzSYsOXk34w+OIRmkobQ5kb9+ch808UUMxv);strokeColor=none;spacingTop=-3;spacingBottom=-3;spacingLeft=-3;spacingRight=-3;points=[];labelBackgroundColor=none;rounded=0;html=1;whiteSpace=wrap;" vertex="1" parent="rrvLgDH6fRj4qbCEKxHJ-27">
          <mxGeometry x="51" y="31" width="17" height="17" as="geometry" />
        </mxCell>
        <mxCell id="rrvLgDH6fRj4qbCEKxHJ-37" value="&lt;div style=&quot;&quot;&gt;&lt;p style=&quot;margin: 0px; text-indent: 0px; direction: ltr;&quot;&gt;&lt;font face=&quot;Oracle Sans&quot;&gt;&lt;span style=&quot;font-size: 16.93px;&quot;&gt;JAVA&lt;/span&gt;&lt;/font&gt;&lt;/p&gt;&lt;p style=&quot;margin: 0px; text-indent: 0px; direction: ltr;&quot;&gt;&lt;font face=&quot;Oracle Sans&quot;&gt;&lt;span style=&quot;font-size: 16.93px;&quot;&gt;Backend&lt;/span&gt;&lt;/font&gt;&lt;/p&gt;&lt;/div&gt;" style="verticalAlign=middle;align=center;vsdxID=68;fillColor=none;gradientColor=none;shape=stencil(nZBLDoAgDERP0z3SIyjew0SURgSD+Lu9kMZoXLhwN9O+tukAlrNpJg1SzDH4QW/URgNYgZTkjA4UkwJUgGXng+6DX1zLfmoymdXo17xh5zmRJ6Q42BWCfc2oJfdAr+Yv+AP9Cb7OJ3H/2JG1HNGz/84klThPVCc=);strokeColor=none;spacingTop=-3;spacingBottom=-3;spacingLeft=-3;spacingRight=-3;points=[];labelBackgroundColor=none;rounded=0;html=1;whiteSpace=wrap;" vertex="1" parent="rrvLgDH6fRj4qbCEKxHJ-22">
          <mxGeometry x="4" y="89" width="76" height="41" as="geometry" />
        </mxCell>
        <mxCell id="rrvLgDH6fRj4qbCEKxHJ-38" value="" style="group" vertex="1" connectable="0" parent="1">
          <mxGeometry x="700" y="352" width="104" height="117" as="geometry" />
        </mxCell>
        <mxCell id="rrvLgDH6fRj4qbCEKxHJ-1" style="vsdxID=21;fillColor=none;gradientColor=none;strokeColor=none;spacingTop=-3;spacingBottom=-3;spacingLeft=-3;spacingRight=-3;points=[];labelBackgroundColor=none;rounded=0;html=1;whiteSpace=wrap;" vertex="1" parent="rrvLgDH6fRj4qbCEKxHJ-38">
          <mxGeometry x="10" width="84" height="73" as="geometry" />
        </mxCell>
        <mxCell id="rrvLgDH6fRj4qbCEKxHJ-2" style="vsdxID=22;fillColor=#FFFFFF;gradientColor=none;shape=stencil(lVbbVhsxDPyafdWxJF+fKfwHB0Kzp2nCCaGFv6/T9VXZC7xtHMkjj8ZjDXz3tn983Q2k3i7n06/d3/H5sh/4x0A0Hve783iJXwPfD3z3cjrvfp5P78fn6ffr4zXy+vX79Oe6w8eUpy1YvGaR+pxWUKn/vx+m8Kf38xSPKUGB0ikB+wz1QdMCM9iQYtJSCEAuRfG0RAEUpai0FDwos4ZOBN736MEC6x4fAzgBHyuyPXwTlNG7gx/GY8NTEz0tGA2Wl+PVt4KB+h4YBcGv8aDAm54GjRBMT4MB7llgDWgECwQUehp4tf/I4FwP3TSydECDF+DkwMgWGCDTg8eikx6X8GO7scfHRlsZTAEK/Fh4EAI0lfdcEYK2qwJ0wCzgFegg4EORW1EgOHF6jtQLAeaYBfCYYQV4s229fLSNXcj4MnbUDm5ia2DaxNZg+JvgtlrFMngUmMQuuszYHlgozsHqTWvuVYZmQCG36KJenLsRRQIyBCgavmI40TIo++xMsCzTEihhjKpskMu0kRBhjNEjhC07yleg3goGvXopY44VptBctwTlGJR4FbD4YoVnMIKlaBOJuCX4iCXfJFMcsuBrcBLfFUIK/owpbL1KHsHI4/viqxnfu2q12SeiJIRKggLre3wqe80qpc0oCUavJGC1UGFF82+f6l8zXaqe396Uq5kTCs3zCVEYfT06i2eB8PYEWO4Liob7KFvfE24RHIqG18RMeI36uuDanelWyiv4XM+yhN/z1Wakk24ZaJuChXUtC1ZllCoWakHUaznPJtW+NzzUhOr4Gf32zTbRV0W76mTJt+Mq9zGzVG2Ot/GjjsYv4+EwTdbt/3KUjkvTGM73/wA=);strokeColor=none;spacingTop=-3;spacingBottom=-3;spacingLeft=-3;spacingRight=-3;points=[];labelBackgroundColor=none;rounded=0;html=1;whiteSpace=wrap;" vertex="1" parent="rrvLgDH6fRj4qbCEKxHJ-1">
          <mxGeometry width="82" height="71" as="geometry" />
        </mxCell>
        <mxCell id="rrvLgDH6fRj4qbCEKxHJ-3" style="vsdxID=23;fillColor=#FFFFFF;gradientColor=none;shape=stencil(pVnJchs5DP0aXVkkwfWc5T9SiTNWjWOnFCdx/n6g6eb2oCbtyk2iAD4S2wOoE737cf/p+93J6h/Pl6d/736fvzzfn+j9ydrz4/3d5fzMn0704UTvvj5d7v65PP18/LJ9//7pKnn99O3p13WHl03PkzJXJav/bAtWUfp/4eMm/vnnZZM32+9BK+92DQMq+sXuQlEZvwvtS7yyq73QvqKVC7vQvmScimGGzjopjujGKwfw0SidRngTlMmAb1TIgB9UiFN8q4wB/Ciuz1KZAD+pZACflPeAn1f3ZwEP+FWn4ievCPAtg8URPyXlaMS3Wdnc4z+cH7tgSfxz8di2QiV8bspnNs0YXQ7DCxScCjQqVO/eVjDK2FHBlFsdmDBzAI8W9EZlMKBVCeKX495iAEsHNqnjAKqhYeTOLYCq4Sb4MoCDPrZVL14jIJnpaTsVUy0e4njakJWG07IjtR9PG0iEW0bnIr7nAybADwLfs7cy4HdJuYO5oBxYq0kd4DvdComRO+9gxJdF/O6ULbcwWpb356zNUO56y5bcNspCueu9RFKKDvw/BkyvAWxxW17Z+CZxB7trFafh2Liq+EdST1QWSh9BIBpSwY2GIFPY4QCZScZCIpAWvMP04bHuJlF3WSoDvg2LosUkkyEQbbXWLBD44BF4h8E0JCKbhKb4fA2kPWl6toiJAN9KazE1ux1uX4WO3N5VYyP2LeBcXtbg1OrJa8G75D4Gdwr5XmI7hWy/guaeJSyhY20sOmzsdSjXqlGLz6LV4NzygO4FUbmovB3R2VlhBOf6jDzFK/a4MvQKOw4cdiWP+wtisYLYZDzf4BUraKVroAlkbp911XBDf+4aa2wrE4b3oqTOhLl+mb8QXjQ618YNwkerDMzF/Ao5K9tUDnAD0RNLiB0njkfaFKxJvg0yhTVrMHdJiz1LkXl9vei2nXQMElsWqyU4NQo+BpfN7Q1w23j0leBWziYS/MrPWKZlZ2tlpVzwc26DQ1miNnE1MsxYK+vE0/jZ1d6pprQvoXuE70S0W9ko9p1H6w9wLmRmxfZgZXqe98DtJG/PozOQlBMkxa6AauY1XH0sDHooCh77iKmwh3Zv1U3O5a+etH+nkGqVOA6zqlJCXJIiN1gBE0zOI+xUgxmW1Lz/JTkOdfHbiqp4/dB6BL8xDBWZoxATzXfbtPBlllVNphfPgcm97d4hKEKz33h1ofoQUuG7tyGSUnTgdpibO439PHZBQKlrcg3q1ANn6SjvG0cW43CDAAd2OC7Ao4htw0Jt04ybKHD1GjPBzSdDtmuKb0JI2MY4NzV6Da5XPhzJ/XGYBAXdqGBPLujGhbyFFnNholsKs+LYR0NVmKZFCiriUCifsviikJQmihY9cpuJ9WD1OMI6Bt9i5eNM/0h2PJOyFCHne+gwRVbS6HEzz+Hy/Fykl0/N8qWu6fQvdTgAsRTWvP49r43c87e3/lWt0jxO/FxVDHhXC+P2M0Th+WNTLSYO/tD+S/h6fnjY/orof8f/Hnhp+9+CPvwH);strokeColor=none;spacingTop=-3;spacingBottom=-3;spacingLeft=-3;spacingRight=-3;points=[];labelBackgroundColor=none;rounded=0;html=1;whiteSpace=wrap;" vertex="1" parent="rrvLgDH6fRj4qbCEKxHJ-1">
          <mxGeometry width="84" height="73" as="geometry" />
        </mxCell>
        <mxCell id="rrvLgDH6fRj4qbCEKxHJ-4" style="vsdxID=24;fillColor=#2d5967;gradientColor=none;shape=stencil(pVrbctw2DP2afdWIN5B8TtP/yDRO7alrZxyndf6+2llRBHGw4O70zVEgHhDAwU17Cp9+PH75/nDy64/3t9e/Hv59+vr+eAq/nbx/enl8eHt63/46hc+n8Onb69vDn2+vP1++Xv79/ctZ8vzX36//nE/4uLwXl5DOL/n11/6gLPny5PeL/PPTC5N3tFT6fy+ksHjjhfUu4eX8X1x+Fdr88fPtcl/X3ih5f2N/EvcTPvx+RD9zfxJiU2L9CPu1XL/W/iisQlUJ7cIioH3tB+9YLo3YPiN2WmIcsSfAtCQ/Irs6wh5m911XAdvU+NVNYMNuqoc6wtZ+qu9WE+aucOMQllXcuE78HJgb251XAZ0Xl6fQZYllhM6LiRx9P7ZZAq4dmW38EcsCO/mlhBF7tZATM5Pj8j22NzqRgBWYTOIWTHLLWk1MKl2rpsaImV2PzxZcwQLNjH2MXMLG2YN/XVwkNtrYme7dsIOATsBi2sKzCOgkoQlDy5Fp69J907HltbmUhS0ZZV+bkE9lEcipLkkgg72V+Io2n5SojoAcIMYQGT09QY7MQdeQY1xcGJEJUmdkJGnWXm3sLe9UByEu42zLciQKxhbiEj74nmzCIWUnb56XG34cwb0SaGD1zRpw9WRf3XuoGy5Lu7st1gS5vcNSyax4KGRhO6SYUrS2gip8HjxY3WGkh0nAFdkghAwu34q/wN4Kjoy33tW1J3aXNm8Dx7YxM77JPkUFyNAGTl4oLAh2lepiARSp0UQ+w/nRNNFWKMjd9QKrardoRKiRfYO7fTB/AbzsRbPvTBfL+1rSsVdISaFr2t+jzER6vGgC1UO5fjYvJEd/aqmexpkmZEOUlZxdbzLPJiCWdTyxanWT6rT2AnOkJLvzJmiQlDFnC/aDTS19YwrNIot5GSKQQNeeHR0euyMVHPG2MiVrR8nQLwRnEbKCrc4V0tYXR6RNX2mswjJJq0AF9JXGcjNwpaXjx7Z6g1OSzyMyp88xNhkxPmHbyE23juzZeikrYCtk3eDtQgNZcV8I6NKp7w926WQfX6G0zubmAm1AxBaE10d/2HUWE13kWkywtsrhsY29EcabhOwlNn+1NiRbBEpgq+k6h1hV7voqI1EU+tI6zTY0Ay/MDA6PbTsFVi4OY43INcAkaBW3yih5UxDeyaGp+MhQYk32/kQWFRiicbqgCGGWMe/RLQM8TTs5Ub+rM5Vl8m2PJUahLNZnlWDgZpW3eb1YqJwMDRXrqDL4Ht47poE+rYRR5Nrsh0mgH9oGHtwkVdyeeVxx2Lf2yGdmyz77yfRzOCSgSNCcLCK+ym4UYh4mxQrkDwXIz+/TLAexoVgp2MM5rkQC7r8CiyDmNTkrQnQEuXOHvQjukwPuJiLrTA34DLsJwBezKsxJ05Y0ZljJ9ne4wllwiUtdt9cMPuC6UoH3WFTjCqESYKFhtStcvEnPtvZY1KLIdkHZtilLLzAUjDLgp9qTpMODW87DsqDAJ8VSNNk0Rki5jZcHtuKkCptG/ECTzAqTlC7GIaFw5ZUcrH7A6slNNo1Ky+dkylXSfcIOSklkcocB4Ya5JMpvUyKJxaKwAhtNqwVgL+yXKRM1IxiJVlzHYqtHAfwj96FkfutIAZbQx5l97y4TPfkRlnAZSWZIKsPhcWbDwAQvb0u4f532hnw10HtD2dEzM7ZH846LJptnpeciJf9g+qM85yFNvhsqPCRYeys8JMx9Cg9nV1d4SAJb8hB7ceQheHvCwzzZkCs8zDifKjzM9ST9I3m4i9weG1kkKmWplQkIAZ+To7kVng9Xd78wG9+K/cUX+Vlw6lUIWvD7jMLRMmu8FUcUmRCRoQV/0IAULbPcpHC0KI03krSIxKgwdHpxhaIFuwTJ0qKUaaDp6PEJR+tsL6KQtOJWk3fFbYpL2ngieVrlsgMiFLcLVflGnyFJVFk1lfFVXn7GPsu0M+ntj/7DrW9Pz8+X333x/5c/9NoeXX4kFj7/Bw==);strokeColor=none;spacingTop=-3;spacingBottom=-3;spacingLeft=-3;spacingRight=-3;points=[];labelBackgroundColor=none;rounded=0;html=1;whiteSpace=wrap;" vertex="1" parent="rrvLgDH6fRj4qbCEKxHJ-1">
          <mxGeometry x="1" y="1" width="80" height="69" as="geometry" />
        </mxCell>
        <mxCell id="rrvLgDH6fRj4qbCEKxHJ-5" value="&lt;div style=&quot;font-size: 1px&quot;&gt;&lt;p style=&quot;align:center;margin-left:0;margin-right:0;margin-top:0px;margin-bottom:0px;text-indent:0;valign:middle;direction:ltr;&quot;&gt;&lt;font style=&quot;font-size:16.93px;font-family:Oracle Sans;color:#000000;direction:ltr;letter-spacing:0px;line-height:120%;opacity:1&quot;&gt;Autonomous&lt;br/&gt;Database&lt;br/&gt;&lt;/font&gt;&lt;/p&gt;&lt;/div&gt;" style="verticalAlign=middle;align=center;vsdxID=26;fillColor=none;gradientColor=none;shape=stencil(nZBLDoAgDERP0z3SIyjew0SURgSD+Lu9kMZoXLhwN9O+tukAlrNpJg1SzDH4QW/URgNYgZTkjA4UkwJUgGXng+6DX1zLfmoymdXo17xh5zmRJ6Q42BWCfc2oJfdAr+Yv+AP9Cb7OJ3H/2JG1HNGz/84klThPVCc=);strokeColor=none;spacingTop=-3;spacingBottom=-3;spacingLeft=-3;spacingRight=-3;points=[];labelBackgroundColor=none;rounded=0;html=1;whiteSpace=wrap;" vertex="1" parent="rrvLgDH6fRj4qbCEKxHJ-38">
          <mxGeometry y="77" width="104" height="40" as="geometry" />
        </mxCell>
        <mxCell id="rrvLgDH6fRj4qbCEKxHJ-51" value="" style="group" vertex="1" connectable="0" parent="1">
          <mxGeometry x="900.0000000000005" y="352" width="100" height="121" as="geometry" />
        </mxCell>
        <mxCell id="rrvLgDH6fRj4qbCEKxHJ-39" style="vsdxID=125;fillColor=none;gradientColor=none;strokeColor=none;spacingTop=-3;spacingBottom=-3;spacingLeft=-3;spacingRight=-3;points=[];labelBackgroundColor=none;rounded=0;html=1;whiteSpace=wrap;" vertex="1" parent="rrvLgDH6fRj4qbCEKxHJ-51">
          <mxGeometry width="84" height="80" as="geometry" />
        </mxCell>
        <mxCell id="rrvLgDH6fRj4qbCEKxHJ-40" style="vsdxID=126;fillColor=none;gradientColor=none;strokeColor=none;spacingTop=-3;spacingBottom=-3;spacingLeft=-3;spacingRight=-3;points=[];labelBackgroundColor=none;rounded=0;html=1;whiteSpace=wrap;" vertex="1" parent="rrvLgDH6fRj4qbCEKxHJ-39">
          <mxGeometry width="84" height="80" as="geometry" />
        </mxCell>
        <mxCell id="rrvLgDH6fRj4qbCEKxHJ-41" style="vsdxID=127;fillColor=none;gradientColor=none;strokeColor=none;spacingTop=-3;spacingBottom=-3;spacingLeft=-3;spacingRight=-3;points=[];labelBackgroundColor=none;rounded=0;html=1;whiteSpace=wrap;" vertex="1" parent="rrvLgDH6fRj4qbCEKxHJ-40">
          <mxGeometry width="42" height="80" as="geometry" />
        </mxCell>
        <mxCell id="rrvLgDH6fRj4qbCEKxHJ-42" style="vsdxID=128;fillColor=#FFFFFF;gradientColor=none;shape=stencil(lZXJUsMwDEC/JleNLFleziz/0YFCM5SWSVuWv8fFSRqpkAw3R5bztKvhm8Nm9bZuCA/Hbv+y/mgfj5uGbxuidrdZd+2xnBq+a/jmad+tn7v9afdYv99WZ83z6XX/fv7DZ32XCAKdXxF+VYlD/Pm+r+oPp67qu3odIoRe3+kH+ElVIAw59zq9KAdwrtfiKvIBsBd99aKUgfIcnATY0FMEFs13CMyaH+Po5sCfavWiECDEOf70jRvfuLTIDwIhL/MFyM3xGaI3eAcYNR41WgSicR01VhAczWFRM70HYc2cGDZIMri46DELoP9nxLnglzNetDAs8xkk/ZNPBGwyXuoykea70lii+aXifdL88vs4m3FxEGzKQUzGpcRajPvgjPchjQEZ6eDDHDwSRNNuCD5reGmtbHxHTU4MmDVZjZhtu5tOpJI4PZFm51EmyGJtJG/rA2140lU7mq5Ig++/WnlR781wA/TPQjJdlEvNBG3m1JdBlMcUjOEs9W8G58LMLgkQE6OroT1Nko3aSJ4si9/JJpVLy6UcLovpqd1u616b3ttFVkR1CfLdNw==);strokeColor=none;spacingTop=-3;spacingBottom=-3;spacingLeft=-3;spacingRight=-3;points=[];labelBackgroundColor=none;rounded=0;html=1;whiteSpace=wrap;" vertex="1" parent="rrvLgDH6fRj4qbCEKxHJ-41">
          <mxGeometry width="40" height="78" as="geometry" />
        </mxCell>
        <mxCell id="rrvLgDH6fRj4qbCEKxHJ-43" style="vsdxID=129;fillColor=#FFFFFF;gradientColor=none;shape=stencil(lVfbUhsxDP2afdXYlq/PFP6DKaHJNCVMCG3691W665u8a4e3xUg51pF0JE/48LF/ft9NSnxczqefuz+Hl8t+wm+TUoe3/e58uNDXhI8TPryezrsf59Pn28v89/vzzfL29ev0+/YL19nPSzD65qXE3/lEAYb/B0+z/ffP8+wgk0cIi4dkLuKqWiPVGOFipEDjYoR3ggewegQeDBhVgxtwWIOXRvEIXAV+PLwVTJUOy4kA271t6RKPNDjDritAMK6CA28asrxn9/XRcYutgmDJfXq5Kq2wLZR78a0D44b4RkOwDF+DcjW+dom4iO+JJezhKw+eVYu3oGt4qUGzanEOkJVLabUcWQumG37pI5OPlEN8a5peWcPXYH03/SAZugD0NboGI2twQ+Cc+2y0nBgBUvWwC5d4osG7GjxfcDnAAN4OA0cD3bhXeCcXwSJf4R2JUTmGR/BfzbtCkKzty+LMV0q3jNQTR6HGlwqs6eEbBazrfKzU3HQBAk88aFZ01oNmmoNgutw71UieyjnN/SWwBl+ZDq3g8OlQC/R4lI1Gn+hGlto9RSZYWBKkr8MSicBrVg3r6rBkVOmtfDaNjMBEhPpRmxqahE7X0DpnOEEL6JYSFYVi6czllydYU0sqT540cLPRvY1UuMTAdRanTfCVNl4BT4qwAY5NukmdJBseokYmjbMsbFHDDoVT1JikxpblurhYTLVoZLMNmIaK7Oa6ZbucQ5tsk5F3Q/A09+4GL4dwrCpanliD0Q6AbFOiMhdMOGht7Ctmlue0qNjUzBG+bN2o2ELU4CuqFW3u36fzr8Yoi0VuE7ldEAfIgfSRrUeBdmAm1gkoLWckIyzh2SZWgABV5buW6mwfs+/6E1WwtqD1gtVGGUwSX6UbjviL46u54Zlpl+dxRYhtZgZDiT7yS+71cDzOD8Hy//zlR0fzqxEf/wE=);strokeColor=none;spacingTop=-3;spacingBottom=-3;spacingLeft=-3;spacingRight=-3;points=[];labelBackgroundColor=none;rounded=0;html=1;whiteSpace=wrap;" vertex="1" parent="rrvLgDH6fRj4qbCEKxHJ-41">
          <mxGeometry width="42" height="80" as="geometry" />
        </mxCell>
        <mxCell id="rrvLgDH6fRj4qbCEKxHJ-44" style="vsdxID=130;fillColor=none;gradientColor=none;strokeColor=none;spacingTop=-3;spacingBottom=-3;spacingLeft=-3;spacingRight=-3;points=[];labelBackgroundColor=none;rounded=0;html=1;whiteSpace=wrap;" vertex="1" parent="rrvLgDH6fRj4qbCEKxHJ-40">
          <mxGeometry x="41" width="42" height="80" as="geometry" />
        </mxCell>
        <mxCell id="rrvLgDH6fRj4qbCEKxHJ-45" style="vsdxID=131;fillColor=#FFFFFF;gradientColor=none;shape=stencil(lZVLcsIwDIZPk61G8kOO17S9B1OgZEqBCdDC7evUiWMZSKY7W5Hy/ZEUqdKL03Z5XFcKT+f28Ln+aVbnbaVfKqWa/XbdNudwqvRrpRebQ7v+aA+X/Srej8vOszt9Hb67N1xjHFmwrotSeIsW78Hxn+UtBrxf2hhB0YHB+j6CUoilaLqqaMLeo796CzX3Hlp69FdPOXPX7DORKATWM/pQijNARmpzgCzlISgj1REDGqkQnwsM3l5mEacUKgXEUiVKiSHJdV1qNF5q1AQsJRKYydQYBFuAdZIysE0NRJLNoLVkWw26YCM4moI7A2glnBSwlfTaAytJ79JVlCf3GrKhwdZT/Dxm+HiTWmGCH7ysnefboWOe8D2nLkt8D+Qkn7D4dUygF8kffYZqIJCaYo8RvcFacEqSc31D3QnQzX45W1CTlX+Q+RDDvprLPDNQPc9nYPdPvnPjQFL3/TlIcmnWZY3vir8uvF5P/nUh10XhQ66pmJhapVzfyl7IplKaM0UvPCt8mNYFOs33seeyYafuvQZStip06fV4LM4vl3AYV9Om2e3iZsufl6ssmOIa1K+/);strokeColor=none;spacingTop=-3;spacingBottom=-3;spacingLeft=-3;spacingRight=-3;points=[];labelBackgroundColor=none;rounded=0;html=1;whiteSpace=wrap;" vertex="1" parent="rrvLgDH6fRj4qbCEKxHJ-44">
          <mxGeometry width="40" height="78" as="geometry" />
        </mxCell>
        <mxCell id="rrvLgDH6fRj4qbCEKxHJ-46" style="vsdxID=132;fillColor=#FFFFFF;gradientColor=none;shape=stencil(lZfddtowDICfJrc6tuWf+Lrr3qNnpYMzBj2UbvD2FU3sWDLYcBeElE+WZEkZ8Olj/fK+Goz6OB72f1b/N6/H9YA/BmM2u/XqsDnS04DPAz697Q+r34f95+51+v3+ctG8PP3d/7u84TTZ6RGsv1gZdZ4kBnD8Fvyc9H99HiYDPf9vIIbZQgsTdTKzJICdReckgtHNSjhJUEOMs1ISQZNtFajI2S77n9g2AHL0CE6gnQHjOFqTg9iCBw3ac7i2+TWJPnpQAk+nMiPnl1rp6JjieoNf2switODHLh8daNfnOxib/EhptoIfIXJ8dBAtx1sLY+T4UitlRIE2TXxhk3LvskeZXzg5i7wCxO7xvQV8NPzegeqHn7Sc7/M9mEf5wUMwnE9F6mX1Owh1+QeOH+nC6ubVo7OK8EcEFNWPBqzAR7qOIv1l00GpdYNPNkoLfvHmGaYDuNDnh1Rr9/Op0mu8Fse3VdeLFpRIfqGU4NTWWO1vN7uiRxcGyZdgm7laDHKXDCJQdCk8d9WA11WcnKiT3nS4kqZ6OpT5N5XS7SKRcB6m/ijrjT714MlUt/hUN6BNZgAvJo4CIzqe4kRbzRrFgbJ4eBAVCwgVpvEtBxX3jnq0FTeyOEK6EuSBr+IiL6RW7WwUkdTcoiyznDEjdW5XWYdMcxqxQ7Y+LzvnYjCKUzubRbkNx7Sq3KoIB8Zw+tK6lylY7EkpDyF35hPWWvdOoVhvYH4ZTA3+lSl4jU8Tvb0F+HzYzNegRB/OCUl02hRGw+mLzrKBYLPYF4vUZ4vNxtT+pZkY74k8rV+dAVRHnta/KOb/lciXS2KDT43jQfxlpReXvajOlAqsBiDVvdOcTuMoNpdvmy/Gkvcq+FaDPHtVdOX1TXBoBp4+H1LtLF3YinlKJJn3fqdhfaY3zJgyPSxfdG+b7Xb6ICz/l1+AJJq+HvH5Cw==);strokeColor=none;spacingTop=-3;spacingBottom=-3;spacingLeft=-3;spacingRight=-3;points=[];labelBackgroundColor=none;rounded=0;html=1;whiteSpace=wrap;" vertex="1" parent="rrvLgDH6fRj4qbCEKxHJ-44">
          <mxGeometry width="42" height="80" as="geometry" />
        </mxCell>
        <mxCell id="rrvLgDH6fRj4qbCEKxHJ-47" style="vsdxID=133;fillColor=none;gradientColor=none;strokeColor=none;spacingTop=-3;spacingBottom=-3;spacingLeft=-3;spacingRight=-3;points=[];labelBackgroundColor=none;rounded=0;html=1;whiteSpace=wrap;" vertex="1" parent="rrvLgDH6fRj4qbCEKxHJ-39">
          <mxGeometry x="1" y="1" width="80" height="77" as="geometry" />
        </mxCell>
        <mxCell id="rrvLgDH6fRj4qbCEKxHJ-48" style="vsdxID=134;fillColor=#2d5967;gradientColor=none;shape=stencil(lVrZdhwpDP2afuWwL89Z/iMnccZ9xrFzOs7294OnCxBXFFS9dWPBRULSldS+mHc/Hj99f7ho+eP19vLvw+/rl9fHi3l/0fr6/Phwu77mTxfz4WLefX25Pfxze/n5/OX+/funN8m3T99efr2d8Oe+Lzrh9dsuLf/eV+T/3z7ehT//vN2l1SYuhYqbuKLy8o++fw1O6HLgtiSF22TMfcEnEcop25LaZHZwvRQRcI3Qrod2WiTXQ3uEtkE4BdBqhpyPCLZHVloAspLC9sDFBgWXSGwrpiqwg0y2FJXtCtZYVHgA7BbAppmxrCRmbNkDWwYse1Q39SvZ4zmHFjb8aaUIXNeYeli/MnHdUDzNtWM1lyrgvhlkAh5OgpeoKMjU+balGA64dEyLJ84GtqbHTr7HzkGqQWslZQ8drfDgXUVmL4E4oQC4naqrTM1Ju8heKIzjOXKyQkI8pTR4a3DsxFJIE9kWkgZrP12fSYpt8tsjF9Bdv4BoMBgMKa9ANKB5iAm7eBzecEECK8bIlp172+DR2x767FVKc6l9l1viBy1CWOJ7JUwAfJ5jcuQksGycPL6zwrrOWtHA+8MGJWycb2D5OpvE9+pFA4lENcZtRI26UalDKYxuKPnTM8MOwL3DqNI5iAJgWzExVN4QfGcobybSsrnAJq2nQWiFARJ08QgzuBEDIzHMyXBADJYRIr1g4WDFooWqXeg/nrGpCVNp3dvUuHkZN/AXUrHsu4sxR3zVmJPYmieBrIECsyrPkwAJUlOlZiTA88BqA8kz24Y5oycBPqMUT3FOREixEd01NFsX3aY5IAShVY/MU0BUQmEJ1cMO8rqfwQ44BQqYAZ8gJmfJOWYQHlUFzCR8DxkAsgmUlX0fIMIQLENxb0S0Z+RVa6pqnM3bMC0iMI1hzVC+BmYmwzMTlSrxKxc8TvfU9qwHd15Y1ooxcAxejRUco9gkHIQXPVZXW3ioIDRnWSp1VHO6pyVOpCN6y7IUl8o3kR1wm1MLKE+PLZZXIgUEh7SZuzjwfhNmHuqCSCXgmorTNBg5d0J7kRtHA1aykvsnCQ6DUnvRqvrLnt8wtwYrDVF+8HIQL5bRrc0xDznLaiSF/EzYblWhPb7N5RJgs1QxoHoLOXrA806erjIcArfL6eo4a52r0J69iS0VO1fXR5EKwFmTOagwnJk5B3ems/JeTslCIlmg/KAisciWEo1BI3x/sJPtk0xvDa/m5ZNpPFC5a35dYvFKd+zlcAil2F0H45gmtU8vaCnFs7tus9dWz2HeolJk3LpiF5zqhkFp3C5ZaptwRPuwGnjQUlfxk3V9v4i1FR8PUKmj6g+qGs+iNgvhdMCzURwdIZQlvyjZakVTn/Rc1J6UT4swoDvKrIQNoGghPBnV8PKajWpWgyi2oR9GUXcrvjzTLvfREroGg0FuhMQ6RoGTE5FCUysno3saQyI1kOsVpjoy79XrOgArOHLufgHHu0MqdFR1ukeBRTW/oIZ32Ve7f+velVaeAX6khOtHGfMRDZVvWg4yJtbjjjcjozpj2Y/wkZ871I843okN+pG58oNmxPLZGL2irm/CmqFBYbnii0EzZjlf0CfS/JaGSw2VB69a+EnvVdTxD3LRIFbCOlbCOlbC2bxYz9zPi2GdF5cKD/IiJ99BXuTkOyq8zudFfyQv+iN5kanOurmVc+QP7Xf7r9enp/vP/vTv+Dt/Xrr/j4D58B8=);strokeColor=none;spacingTop=-3;spacingBottom=-3;spacingLeft=-3;spacingRight=-3;points=[];labelBackgroundColor=none;rounded=0;html=1;whiteSpace=wrap;" vertex="1" parent="rrvLgDH6fRj4qbCEKxHJ-47">
          <mxGeometry width="38" height="76" as="geometry" />
        </mxCell>
        <mxCell id="rrvLgDH6fRj4qbCEKxHJ-49" style="vsdxID=135;fillColor=#2d5967;gradientColor=none;shape=stencil(lVrbchs3DP0avWJIgpflc5r+R6Zxak1dO+M4rf33wUZLEgRvqzeJBnhIAAcXWhf89OPxy/eHi1E/3l5f/nn4//r17fGCf1yMuT4/Prxe3+jTBT9f8NO3l9eHv19ffj5/vX3//mWX3D/9+/LfvsP7TU8rtesY9XH77hRo83vlz5v4Xz9fb/JaKhwL1oK3t6V3c1uKHlQ4pI4ljJCE8LayRdD+EDqW0KWlATjXOZbQgtU1PJdK8AjRrPERdLgT32iIrsYPCBhrfG3AhhrfGTC2xtcK4hTfBsAa3kPAGn23tBG3BxtrcFSgnAAHN4M25BtbYysQF9cRgoBWNa62gLrGVTNUX+6i6w3r/cc3VTVaSPY6AJ+uz4wNNRcieWjqDsEECnsnQtFB1PUJI9nICaMghHgRkTA1Czej5GV2hi27GimTYByY7S5kChznF8iUEdCJW1NG0DV2J/6JXsdxBujBFHsmSpJHN8H/DfxW44ctESfTnwkdSz6AmsJznRSg5PM1vHewyfTXwXeg4gyf59WEr2CTLFSCFM6BF8YvMskbMu/XxFiWibqqhJDveyh4C256t91DMre5pFNSK5My2QMofMulzvq2gx/Ia4LP+5EEoTcEJXxrNwihxt8yx7v2tQXq45wC49ihQFyeWhg3iOKGUYMy9Q0pQzoRvdGWvFYSh7xhkRolLZZsdLuzaaUm+LZJmWt8U2w8wdeAooZFBCeaBy6V8E2S6jOIacjw7iqgz43FSQXmX5mcRiERmpDwoUloJGVtbRK/wSZIx6US6WKSGuNb0VQEC8rX+J16sieYtp4E4ZIiNWovdMq4BT+0pCcryXpSCvA7tlJn7891StJD0U7zU5alzS3vX6QG+JTGUzPyodudk/1ZOkv4Jh8pJz0Pm8Q304C1RMjUS+RqNu3/LR1O+ItUhLusAhGtLjbW4mRBKXWSwPcr0IXDxB7MzgOFEw6kar8JAjkPXhDIhSKVvIWlu0ApNaqauiEw33lctR0RSOB3qrYlC99btamUouwadJPAKJLi8vpZaGR9Zlfd7JtuqsGIy1vMYTxpGXZCVZdfhdfdCjQq+kkA80lyoNAQVKUjlAE96xSGGsDl+wAZCcWIupN2Qp8yHJcKOk3/FF5G+G+vSHKGax1IUl5Er0MwYrItUuPy46S12M6l1lqR/tHmd4gcvkzqWDIxjRgjfKbDxnwRwPyUqUnUIF8z2utnoZH1bRkSdLNvsXQUxudHxFbq7OU7vQ8Nt/mVyOSQa15TdPOWxJmSlkyS6nOLdT7HCk4VOuy9VyE3G6MGmWnk95comkHeRZdHDuGPzrtCFhpPB0HMtmxf0wqNwT0Yfyc4e7gaghtsqqjPmSGBk5GVoKFfmH1/wRQspKATZueJtUwqRsQhp1SZlGKVhFaD524+PVFompRGoUkzbGjWWSeumwRjG6Z3moSGaSeaBOKOD0t8/rbMRgphYXRJqmsw0hCTelOXhEIsBympamphmv1l/FIjokXZ7byL82Zp/C6+bMM67+K8wTPtKRN7N5BdYGzfbuQYszIwzR2Hk0YKq9epuxXq9y8+ix0KYTGKu1LVJqM4Nde6HcWzFLZSZ0dRrlOaeyVIwk+ZeGOK1GQUz1LjScaIEOI7l1FUvg7xU2Irdfb+XEe3ljXtKU3rpckoLv1fR9iJgBERRsSpk8TyP3dcpVx6EzfcR3BR36mx3sQNe8NSWCSJThngOxdzym6XnxJbqdELduexRdZZau1RRFjnhdeVcWU2K2epET6zrG53Nq2XTHtKbKXOveCfCJg6wjghjnIcU8d8nkOm/JtjwiHqmvyaQ0XqfA7lO49zKD/lOIcu79/JoTQs6HUOpRZGr3NokTqfQ/nO4xzKTznOoc39m85wFTD0ofwQ4dv16en2Owb+d/nDBVq6/egBP/8C);strokeColor=none;spacingTop=-3;spacingBottom=-3;spacingLeft=-3;spacingRight=-3;points=[];labelBackgroundColor=none;rounded=0;html=1;whiteSpace=wrap;" vertex="1" parent="rrvLgDH6fRj4qbCEKxHJ-47">
          <mxGeometry x="41" width="39" height="77" as="geometry" />
        </mxCell>
        <mxCell id="rrvLgDH6fRj4qbCEKxHJ-50" value="&lt;div style=&quot;font-size: 1px&quot;&gt;&lt;p style=&quot;align:center;margin-left:0;margin-right:0;margin-top:0px;margin-bottom:0px;text-indent:0;valign:middle;direction:ltr;&quot;&gt;&lt;font style=&quot;font-size: 16.93px; font-family: &amp;quot;Oracle Sans&amp;quot;; color: rgb(0, 0, 0); direction: ltr; letter-spacing: 0px; line-height: 120%; opacity: 1;&quot;&gt;OCI Generative AI&lt;/font&gt;&lt;/p&gt;&lt;/div&gt;" style="verticalAlign=middle;align=center;vsdxID=137;fillColor=none;gradientColor=none;shape=stencil(nZBLDoAgDERP0z3SIyjew0SURgSD+Lu9kMZoXLhwN9O+tukAlrNpJg1SzDH4QW/URgNYgZTkjA4UkwJUgGXng+6DX1zLfmoymdXo17xh5zmRJ6Q42BWCfc2oJfdAr+Yv+AP9Cb7OJ3H/2JG1HNGz/84klThPVCc=);strokeColor=none;spacingTop=-3;spacingBottom=-3;spacingLeft=-3;spacingRight=-3;points=[];labelBackgroundColor=none;rounded=0;html=1;whiteSpace=wrap;" vertex="1" parent="rrvLgDH6fRj4qbCEKxHJ-51">
          <mxGeometry x="-8" y="85" width="100" height="36" as="geometry" />
        </mxCell>
        <mxCell id="rrvLgDH6fRj4qbCEKxHJ-52" style="vsdxID=12;fillColor=none;gradientColor=none;strokeColor=none;spacingTop=-3;spacingBottom=-3;spacingLeft=-3;spacingRight=-3;points=[];labelBackgroundColor=none;rounded=0;html=1;whiteSpace=wrap;" vertex="1" parent="1">
          <mxGeometry x="330" y="280" width="84" height="84" as="geometry" />
        </mxCell>
        <mxCell id="rrvLgDH6fRj4qbCEKxHJ-53" style="vsdxID=13;fillColor=none;gradientColor=none;strokeColor=none;spacingTop=-3;spacingBottom=-3;spacingLeft=-3;spacingRight=-3;points=[];labelBackgroundColor=none;rounded=0;html=1;whiteSpace=wrap;" vertex="1" parent="rrvLgDH6fRj4qbCEKxHJ-52">
          <mxGeometry width="84" height="84" as="geometry" />
        </mxCell>
        <mxCell id="rrvLgDH6fRj4qbCEKxHJ-54" style="vsdxID=14;fillColor=#FFFFFF;gradientColor=none;shape=stencil(pVbbUuMwDP2avGosyddnFv6DgbLNbLdlQoHy9+tuHCdWgjOhb45y5KO71fDd2/7xddeQejt3pz+7z/b5vG/4V0PUHve7rj3HU8P3Dd+9nLrd7+70fnzuv18fr8jr6e/p43rDpdfzCP6qROqrF6BS/78fevShPdbQgSFU4AHUFrwxgAXcBHB2in9673rrMQE0ICeVJHIIutdRF0qoUfRF2ROXuC7ci7QDHu7i7IDBGr8mIMEfPFAo+dkB6pJ/CHNmZwanS3aRCskdNciU3OOtAzOBoTXmMalJEtbCTgQqzNxWpiRHC0qQewZ0JT0yeBF2V/UbCbwtyW0sHBLkBOxL8lhNJMlpzEwSmWziYo2qskC3gGOBqQp4ass3CguhyE4OFanA8SwUXpQ/a7DcrOWB1so/ZjiIOsB5+5Eersn8Ckiv1n8GfdcAk/GCs3sTk/ZgRO/FmWFK8phGK8i5WoMLcyc6oLHkjigrHGebo5zJNXhTkmvpupirfkxVagDAChzBmFvglRchjD31EzC6NHuW8TGk5jZ8xRpjxWO20p8x6oibFCYDOj8XupZXN7ZzKpc8VZdHhhLjqPZ2O7BUoO2KNTPzTd2aGCAWCgSBKxmI8dNbFOYJ9vKpWlWIU7aygoQwzqofKmzboG5Cx8O42L20h0O/F07/y0Uwivolku//AQ==);strokeColor=none;spacingTop=-3;spacingBottom=-3;spacingLeft=-3;spacingRight=-3;points=[];labelBackgroundColor=none;rounded=0;html=1;whiteSpace=wrap;" vertex="1" parent="rrvLgDH6fRj4qbCEKxHJ-53">
          <mxGeometry x="1" y="1" width="82" height="82" as="geometry" />
        </mxCell>
        <mxCell id="rrvLgDH6fRj4qbCEKxHJ-55" style="vsdxID=15;fillColor=#FFFFFF;gradientColor=none;shape=stencil(pVnbVlwhDP2aec0CwvXZtv/hqlpn1apr1Nb+fZnOAQ7JmTDo24h7syEJSeDs8Orl/vr5dmfUy+vh6eftn/3N6/0Ov+yM2T/e3x72r/nXDr/u8Oru6XD74/D09nhz+vv5+og8/vr19Ps4w/uJlzwkPLKM+nsaMYDx/8C3E/5h/yjidZAJWP79YUIEfR7uEFKHttNwxPP4mCDaKUIWMD3BgDcCwYMhS1Iz9ncCOs/terRXYAXjRwva99OL5kwKUPd4vRj4MvPLcB4LSYMPU8EjW5/bc5qQguxfA+qzBAvKiU4IcYaQveCJlz0x6/e3wylN6ErRxXPLkK/bUO+mxCLEsvRlKESIS4S84xLfHkrMLCMxQPSSvM1u1718ciWSqzwG0KaXTzXZVHnEuqKin2hKovqZg0j0VzMX/Ro6or4B7Zi+tpK+yeYPw/3nzBqI+aOC5Hp97cD38j6RcKHy2kKk3q8h1uRti5ESENWxTX6FwpoEpEOdKxKJ1km8XBLWC9rGb5iDHgZbl7Q2RyTmwJXPmjdqgSkBokTxCIkcBd2is4gbByH04i04ayRmHxJtmvzYQYhtXs3mXZRsABN7cQ8We3GX05ymG4cgGj5zgunV8x4czULI4jAv2wWij3VJRd/ioNaRNOvK2bowj8/iZ1uxz+JJa5hoYzLVl0htCdupAA6pnqyPgGWbcLzsI44fdINspwO8A60n8M6B63MdjkpppiA9Qw6MJWcoJ69SpFp1o7k8ozw/w1YspTab0PX6vJJZBeQEq7bElr1qlkECOldGc7IgiVuxrecqqkgV15qlr5xzA9m6SRBE02vDkudG+sooQza/3AiaeA4rUsOtHLi8Jsp49QmwHLI9WO7/CdYWw1zYJsj47NRoZMKGA6vdS+xWp68d6Egb5h0L3xxAloSvHwbQqllYhmKpWa30awjk6CbehqFubUTpQkfy6/5WU07rgle9crGIIgG80XkUzDntwI5um7UcE2zZtuw8Ar19RDCk7sc08Pu6Vyl2b/Zb5cyaDcvtZyNnrlJ28btcpHhRGNyCN26QMoGXtXmCfOXcIMi3YE4gATLasgjfeMYS4awVmoQPNssJo1cITqC1b/jOMSDwl5QBQbey+VHCYNOcINelnJsd6djlKI0W7BQ+l2rSPvpy99gmqJZBFwLt14YKqXQM57bgyZOfWGL586PHclfaJgRIdkIgZ2AkRq3d1HZdVqSfoGVpNL983efrRxnPDIReXD/3wECAudjSe/AoiOyggHCFQVzzR2wnLikHJXWCTOBnWddnuUsJg+8InDAIJP6lYkDgRWRA4GVkmjDYNCMM3gSm7vgyOP9oX5nu9g8Pp49U6//Tr1J56PRFC7/+Aw==);strokeColor=none;spacingTop=-3;spacingBottom=-3;spacingLeft=-3;spacingRight=-3;points=[];labelBackgroundColor=none;rounded=0;html=1;whiteSpace=wrap;" vertex="1" parent="rrvLgDH6fRj4qbCEKxHJ-53">
          <mxGeometry width="84" height="84" as="geometry" />
        </mxCell>
        <mxCell id="rrvLgDH6fRj4qbCEKxHJ-56" style="vsdxID=16;fillColor=#2d5967;gradientColor=none;shape=stencil(pZfRdtsgDIafxrc+lgQGrrvuPXrWdPFZlvSk6Za+/ZIZjJFsMa93MfnhAyF+REMPb/un112D3dvlfPqx+z08X/YNfWkQh+N+dx4ut18NPTb08HI6776fT+/H5/H79emuvP/6efp1H+E69oOuu/fB7iN+29bZvy1fR/lhOCrybl3qTYv2/8WkziNQu0VuxfAGWYdv7+cxLpC6RH38Jj9+XzH+n2cQW2iaQ3elKJoo3UdswlABG5f7pKYSTT4rYlM3rS+hZ7NJ6Em0QkaGnQ0aMeAEGaBlZDCtXLNOBmo5nDgaBdpINHK08QxdJkaZzZvEFpVjgiw9S7FYfpan7PMtX/8sRLGpNyLhYJboscnVth16Tvc51gmPKPDBl2wCkXGhluyEYuNzn5zwcu8nI5rlO4MnyRraldw8Yk4vTuVLNj2HBpVpQYS64xttSWB7L51FHDLr1OQNs2FjS5r8miN/Ss6ir18jm8T5rlheaM+9fnOHUL1NtNPNRkced03txVwmJ1jWez56D/8eSavdyKGQUlCn0bOIGNRDLoJSsV4R8u36LQnQbxFvLJk+Ky/rN4Mi2125U6K+SOMnvwVmtskXk+fZpdqC3zJZtWa3xLBWVBcLNr8EF3d8lY3M6oMRbIQS7EnUFl5cb33QQw2ylOslGpy4Wq0XywZXsjUXoSBcRFNLh1I9hyw7W5rlGO4MmudQKaWgTpodcFCPlQxJxUHmu7LSYWG7eTFjkO21Lzc6x3La5+S7Kd2rVTuWSFgo3uSDQZ5oXk6oh9mXTMYzRmQ0gChhjBcrrTzJQMbXicXaqaJKbIcMjMK+uGmyJK6a7O1HfmG/DIfD+ECf/89f5Lem8TVPj38A);strokeColor=none;spacingTop=-3;spacingBottom=-3;spacingLeft=-3;spacingRight=-3;points=[];labelBackgroundColor=none;rounded=0;html=1;whiteSpace=wrap;" vertex="1" parent="rrvLgDH6fRj4qbCEKxHJ-52">
          <mxGeometry x="2" y="2" width="80" height="80" as="geometry" />
        </mxCell>
        <mxCell id="rrvLgDH6fRj4qbCEKxHJ-57" value="&lt;div style=&quot;font-size: 1px&quot;&gt;&lt;p style=&quot;align:center;margin-left:0;margin-right:0;margin-top:0px;margin-bottom:0px;text-indent:0;valign:middle;direction:ltr;&quot;&gt;&lt;font style=&quot;font-size:16.93px;font-family:Oracle Sans;color:#000000;direction:ltr;letter-spacing:0px;line-height:120%;opacity:1&quot;&gt;Load &lt;/font&gt;&lt;font style=&quot;font-size:16.93px;font-family:Oracle Sans;color:#000000;direction:ltr;letter-spacing:0px;line-height:120%;opacity:1&quot;&gt;Balancer&lt;/font&gt;&lt;font style=&quot;font-size:16.93px;font-family:Oracle Sans;color:#000000;direction:ltr;letter-spacing:0px;line-height:120%;opacity:1&quot;&gt;&lt;br/&gt;&lt;/font&gt;&lt;/p&gt;&lt;/div&gt;" style="verticalAlign=middle;align=center;vsdxID=18;fillColor=none;gradientColor=none;shape=stencil(nZBLDoAgDERP0z3SIyjew0SURgSD+Lu9kMZoXLhwN9O+tukAlrNpJg1SzDH4QW/URgNYgZTkjA4UkwJUgGXng+6DX1zLfmoymdXo17xh5zmRJ6Q42BWCfc2oJfdAr+Yv+AP9Cb7OJ3H/2JG1HNGz/84klThPVCc=);strokeColor=none;spacingTop=-3;spacingBottom=-3;spacingLeft=-3;spacingRight=-3;points=[];labelBackgroundColor=none;rounded=0;html=1;whiteSpace=wrap;" vertex="1" parent="1">
          <mxGeometry x="339" y="369" width="67" height="40" as="geometry" />
        </mxCell>
        <mxCell id="rrvLgDH6fRj4qbCEKxHJ-58" style="vsdxID=27;fillColor=none;gradientColor=none;strokeColor=none;spacingTop=-3;spacingBottom=-3;spacingLeft=-3;spacingRight=-3;points=[];labelBackgroundColor=none;rounded=0;html=1;whiteSpace=wrap;" vertex="1" parent="1">
          <mxGeometry x="160" y="278" width="76" height="84" as="geometry" />
        </mxCell>
        <mxCell id="rrvLgDH6fRj4qbCEKxHJ-59" style="vsdxID=28;fillColor=#FFFFFF;gradientColor=none;shape=stencil(pVXbchshDP2afdUgCRA8p+l/ZBqn3qlrZxynTf++UFhYlDEvfQOttEeXo8PCD2/Hp9fDQubtdr38OPxen2/Hhb8sROv5eLiut3Ra+HHhh5fL9fD9enk/P5f761P2zKefl1/5Dx8lzoDhHETmTzGgMf/uX4v3aT3PvANB5L3/t/dr+T3WiOperyLAvpg+qJgISKpTtQhCjNWJi8mDrT6bQSBMgdGA4xHcM/gwgqMHsiO6RzBuRE85WlT4Bqyd4keIYcR3AVgUvkDEEd85iDLi5yzDiO8YeMAfB4UO3BZRA1Kf6X5A7rAMAYggflYhCQiNFYYtqVYgG0BWBfYu1GI4FaPqY6ApOHvwarwI6EZwu+MANQbjCG4tOEWuyQak6dhxBcwsTRc7c7BloDYg8VKvAAKpNH0a0KceMc7AfQQZsV3LZsMWAsW/0De04sjn8WRy8P0upQhRskIQwv2AYHVbE19RJgHcydc2guKsHUmrUM0i7xqPDQmmrX8j7I7WW0sEPI0tyYowHUdOOSpFwiaoDT/2OXd+eDWSmExakZIiTvGj9KFscpyUVpFx0/+uxkmySaHvtI1bc2fz3Ud0i7sf8J/vkvJOh/4AvqynU3k/99/1g5lM5bHlx78=);strokeColor=none;spacingTop=-3;spacingBottom=-3;spacingLeft=-3;spacingRight=-3;points=[];labelBackgroundColor=none;rounded=0;html=1;whiteSpace=wrap;" vertex="1" parent="rrvLgDH6fRj4qbCEKxHJ-58">
          <mxGeometry x="1" y="1" width="74" height="82" as="geometry" />
        </mxCell>
        <mxCell id="rrvLgDH6fRj4qbCEKxHJ-60" style="vsdxID=29;fillColor=#FFFFFF;gradientColor=none;shape=stencil(pVjbVhsxDPyafdWxLV+fKf0PTgklpxQ4Adr076vtrr32uPFC+xaMlLGkkTTOxFcv9zfPh8mol9fT07fDz+Pt6/3EnyZjjo/3h9PxVT5NfD3x1d3T6fD19PT2eLv8/XwzW86fvj/9mL/hvPg5R6xnL6N+LSeGOP45+LzYf3k7LQ569Uiks4fOLtYuJ2eznHhDIa1G6xGTX93OvBo5CmE1Wo/kxIzAfaTgW/BAkVvwoAiwtSpuGTxoir4F15ZUqNEfjo9VqqKhNlNOU+KBvSbvWgdD3o7CC4k8t+E5T0pDfL5LrouUILuBiW0boNek7eULi4fj5sKdQ3dh311YfNYsbhdOuazlwmLloCKS38yQcmFDbkjG6MgBvPCsRY+RNAO6K0cZPSliB+iBVBqhJ7leAPhECnohWWLAF/JxAHyJBMol9UjD7Cchgm3xpSDOAH4g9oCfyETAD138UpBRP9Qe5cSbyw5S3/hf9t2FMCGVh+4jLYMIq1HlbA3dEuRitxYyuQC5qnEGIguFqOmSC0E+TR/jodal+wsPK4bnIWg3hmX4rVnyDJQ7MsDvNaGR1jEAX7X3iiV5txrgq1GxghmpBQ6B8dQSj9DScHdqVRTI1avmpylRWdfet57FOV+x7L6yw3DKt/eVDKeW1jt7xETYO/OecsP4UjYoAc4bEOYSS5pgjcguhfjYko4QHw17kANpaAXZK6nFtooiJNcU4pUmtDmRBRvFSZspETOmXWC79jvi56P2nbiC+6jLX15H+xdjTLNkMACJFSnoOfaUYPFK0aHlmbuJw9noUo2lN6DGbvveXFAhepiAX2m/32WamXG/m9Dkac/BbbpideDh3tFdmaVDR7wQB9UpPZOGDg5mgKR8fKVSyOKw9uqlpSB9CENA+Ai7UMaXh6HsZCkDQ4RZBhgirwAeUmTeNqgMhTWAn8qOrFZSVhXnMnA8jCDZiHa4kmSiphZc1rEHYaSAnL48RzKyKtv5nZqocshzd9DyKW0d8k/mu4Iof1+tDwP0qaiwhHtAoy4QEYsUmIswBBdJ7aAKc3VBloiE73TBNl7KayZ1u2CXgvIAQ10yk9sBfv9UlT7JR+VxYjsqdB0Izz9LNn/vu3pcEqFg7IyniCCA8pnnlL/sEGxpwG0SuoG9RAh01sMQ5hdkHDt0L0ihMGr28jI/bzLZoRbrpKP3BMqVd3SzsLHTSfm6BVtoZuDBoDrRXiuDPDsup+lDumDHWD5sv+3cHR8elp+G6v/jb0FytPyOxNe/AQ==);strokeColor=none;spacingTop=-3;spacingBottom=-3;spacingLeft=-3;spacingRight=-3;points=[];labelBackgroundColor=none;rounded=0;html=1;whiteSpace=wrap;" vertex="1" parent="rrvLgDH6fRj4qbCEKxHJ-58">
          <mxGeometry width="76" height="84" as="geometry" />
        </mxCell>
        <mxCell id="rrvLgDH6fRj4qbCEKxHJ-61" style="vsdxID=30;fillColor=#2c5967;gradientColor=none;shape=stencil(nVrbklQ3DPyaeXX5fnkm5D+osIStEJZaIIG/j5wZS3Zrjs8ub8tgj2S51WrJcwlvvn589+Xh4u3Xb89Pfz38+/j+28dL+O3i/ePnjw/Pj9/or0t4ewlvPjw9P/z5/PT98/vrv7+86yv7X38//dO/4cd1X4mm1b7L25/XT7Iz5f8Pfr+u//T4eV1f9uv/+P58NeBuO6qJ4bbj9lFqJuTrRz/89aPqZNXto5RNcLdV4bYqmFRuq24fJW/Kxt8ajY2Lv7TB+s0Bg3Ft2eC88Wl7Qm9cWU9Yh1N8wNxMg/OZ3Nbj5WxKWI8XTKw725kiklfbzniwTfHOeTVujU2r8UT+xNW4PQ5TjCamJUx252a0JsbVTfIAMBCynMXzWSBGgSLiMEbJ7YwHazzEKHGgh3G6shss2Hg1FfDni7FgvKNjgz+XjS2XV+CPNqSEG8o2w1w1ucL5ptwZB3SMt5+CC87DccJkAkBwTwi0AfLljBDIkeZWd2lLhvvoh0qru5nyLK7uumRSA3eD8Vs40I0lIKQcBWc3Y80UNJ8MYLEYSJhcTNtSReK0G6aLhSSQcHqmlwi5ShH0q+VC15B3lq2Ec1gupkIGWkgAKzQ2KEElAHHyBh7T+pvrdscqbO+XVqMrioVkw+Bpx3BnsjRQh6iAjRLJRG0C3Hwh6m4728UEsE2lNEOOEuPoy+fMGJdvhymxboeLx5jn5B+Yp+T3kHNxwFdAL7TI9gn2gD7C/R59TqrfMJ8NMjDlZQTriQMyEZTDjE+QdStMqKwEYCjcoCpGNhXKFQUCGCKQsCmrv8XJlQaufCywxm2xijnCKS0ArCTmrGE+EuKgYBEI0XySMjtBNW8JMgUDh5+/WNRZRvOTk8N8My688vS9GODxnbLfab5eEKsoqIISVCdg6Xp4HOuFYCEeTZDaU6kQKoVo9QSAzKpedNqUWVteqZQP/oJQRWlVC1d6tq+Lf21D6cptuUHgB/abMw5vi44BCrR5Vc07/UE1b0GEjIC1+q39aJBXsZIn44FXOu2j7WnViyrbvOEFxWr85y8tPitsst4x3LABaXTfeAWTAhhhIOzgFZxJi5ZZKE8QiABBuqgG11BEHbB9rwUdiaq9fSuwnRIQa2tRdE2yD/iK2kXsLjrRbBHYwQTtRVeqaTVPKsJCbZ9V74h1lFC+SH7/Qv9+sn6dD1Dv1NbiScp4zUiotnqDN/ti6we+OH60pUD8qO9DBqNVDeATohoQ9FX7amtV+04qfOQ2l9uk2qfeUQGD93IL2ogambjFT4rGQj9C3xzg/FRJbdDnh/TtjQwcPxzfFWVJhLsKO0/7fEJdVANd0tNV+VnQzyZtcbgPE3C1YR/dcbh1tqnC1JEGzlYRCJ4hBKWBToRJKaOK41CB4CW5WNB6GpMLtk5gVFMhIn+oTNGPZDjWUA2uKsokbMJUhZJAMA9gPxVBybCfR9t0hOnErTrbL3ouRaoAzBfubTYpRavqllJoAY6b5m/2HJGmzHtoeCnUKenTbzO6Mwrcfo9rXc0TICwUpChU8EOQFgB8p7ffWRCPb1laTYzqIPwzRod9rzRh4BHVkX3pqn+KSwC+XigA/FN+BlkE2MO8Py0/r65XuGGtiHNPwcnmdtSlNsQKI8A77KEuMCtJQeRVoQWizhGplkQW9BTRDZQdD7RHazKxF/A89XEBrIek0odWcZcqiNqFq49bYADqxuzkuANDBUY9LGR7l7GQbtTDWpjslGkIIfy3n7/20T6Ei5gV9W+vCID3bJWAuNexuuH4C+H1ajyqDSviiZU4vLdP4EVkNUDkn/brVbloQ2ML3hVfkqjOALikqkXW46EK4VPXV1DVOMsHmJ5vkKydxJGtV0VX26uryD0kFt02Ur2xAWagPUqDeeZx9rayIpiGMxmonVad3BQxE7w1uMIpw4U9yCvhsJ+5/2H7TpVWF0eY7098Gx9VHud2z3/EtAGadLSgijcRLXSzs+9CtEyRXsdBhn9YPHuE98W7GIcRnu5OijeOavsqsN+LmzK/44Zpwz343nlZq1Do56yYyjqiwXKfNrVuOPypJ7OvO6FK8mY3KWqQ+FFpXKI4D8b3HPdaTjxfv3IudYAO3q2xCsI7XEakd+W2VRm0BR8FqIIHyGVf5NVEZCK3p6LKUCW7k0QjlegBPF2+4JR9evKXybcDkTPP+Id9FFmnrwJYZ5XD/LIog56pgouu9cC9sxqQl2Scc3WdsWUGgkxDmSPPy9MzCnIv0bF6RnGqTp4B7NWIPN+wYr53emuP34XoLiK9EQTdwFuWyQ30OUUqDzNAUKW7jJn9kXWv2pwuyUGlUx6ohwrsMZ16pMk7LpmWc+Ti2YtShVTv1RdEDiUWFhVq0R2+6ViZRAVcdfykhEV1/mbR40qiT16ybAHjeHhQo/j2t/WzSvI4uKzhUdG/DKhqjp5EMsxw2uIpRfVLqQ5UPTTxEKQiQNxMTfqq5fD0h/ws7MPjp0/XX5XN/48/I6OPrj9BC2//Aw==);strokeColor=none;spacingTop=-3;spacingBottom=-3;spacingLeft=-3;spacingRight=-3;points=[];labelBackgroundColor=none;rounded=0;html=1;whiteSpace=wrap;" vertex="1" parent="rrvLgDH6fRj4qbCEKxHJ-58">
          <mxGeometry x="2" y="2" width="72" height="80" as="geometry" />
        </mxCell>
        <mxCell id="rrvLgDH6fRj4qbCEKxHJ-62" value="&lt;div style=&quot;font-size: 1px&quot;&gt;&lt;p style=&quot;align:center;margin-left:0;margin-right:0;margin-top:0px;margin-bottom:0px;text-indent:0;valign:middle;direction:ltr;&quot;&gt;&lt;font style=&quot;font-size:16.93px;font-family:Oracle Sans;color:#000000;direction:ltr;letter-spacing:0px;line-height:120%;opacity:1&quot;&gt;User&lt;br/&gt;&lt;/font&gt;&lt;/p&gt;&lt;/div&gt;" style="verticalAlign=middle;align=center;vsdxID=32;fillColor=none;gradientColor=none;shape=stencil(nZBLDoAgDERP0z3SIyjew0SURgSD+Lu9kMZoXLhwN9O+tukAlrNpJg1SzDH4QW/URgNYgZTkjA4UkwJUgGXng+6DX1zLfmoymdXo17xh5zmRJ6Q42BWCfc2oJfdAr+Yv+AP9Cb7OJ3H/2JG1HNGz/84klThPVCc=);strokeColor=none;spacingTop=-3;spacingBottom=-3;spacingLeft=-3;spacingRight=-3;points=[];labelBackgroundColor=none;rounded=0;html=1;whiteSpace=wrap;" vertex="1" parent="1">
          <mxGeometry x="177" y="367" width="42" height="20" as="geometry" />
        </mxCell>
        <mxCell id="rrvLgDH6fRj4qbCEKxHJ-63" style="edgeStyle=orthogonalEdgeStyle;rounded=0;orthogonalLoop=1;jettySize=auto;html=1;entryX=0;entryY=0.476;entryDx=0;entryDy=0;entryPerimeter=0;strokeWidth=3;" edge="1" parent="1" source="rrvLgDH6fRj4qbCEKxHJ-56" target="rrvLgDH6fRj4qbCEKxHJ-10">
          <mxGeometry relative="1" as="geometry">
            <Array as="points">
              <mxPoint x="460" y="322" />
              <mxPoint x="460" y="200" />
            </Array>
          </mxGeometry>
        </mxCell>
        <mxCell id="rrvLgDH6fRj4qbCEKxHJ-64" style="edgeStyle=orthogonalEdgeStyle;rounded=0;orthogonalLoop=1;jettySize=auto;html=1;entryX=0.075;entryY=0.475;entryDx=0;entryDy=0;entryPerimeter=0;strokeWidth=3;" edge="1" parent="1" source="rrvLgDH6fRj4qbCEKxHJ-56" target="rrvLgDH6fRj4qbCEKxHJ-28">
          <mxGeometry relative="1" as="geometry">
            <Array as="points">
              <mxPoint x="460" y="322" />
              <mxPoint x="460" y="400" />
            </Array>
          </mxGeometry>
        </mxCell>
        <mxCell id="rrvLgDH6fRj4qbCEKxHJ-65" style="edgeStyle=orthogonalEdgeStyle;rounded=0;orthogonalLoop=1;jettySize=auto;html=1;entryX=0.048;entryY=0.671;entryDx=0;entryDy=0;entryPerimeter=0;curved=1;strokeWidth=3;" edge="1" parent="1" source="rrvLgDH6fRj4qbCEKxHJ-36" target="rrvLgDH6fRj4qbCEKxHJ-1">
          <mxGeometry relative="1" as="geometry" />
        </mxCell>
        <mxCell id="rrvLgDH6fRj4qbCEKxHJ-66" style="edgeStyle=orthogonalEdgeStyle;rounded=0;orthogonalLoop=1;jettySize=auto;html=1;entryX=0.053;entryY=0.447;entryDx=0;entryDy=0;entryPerimeter=0;curved=1;strokeWidth=3;" edge="1" parent="1" source="rrvLgDH6fRj4qbCEKxHJ-2" target="rrvLgDH6fRj4qbCEKxHJ-48">
          <mxGeometry relative="1" as="geometry" />
        </mxCell>
        <mxCell id="rrvLgDH6fRj4qbCEKxHJ-68" style="edgeStyle=orthogonalEdgeStyle;rounded=0;orthogonalLoop=1;jettySize=auto;html=1;entryX=-0.024;entryY=0.476;entryDx=0;entryDy=0;entryPerimeter=0;strokeWidth=3;" edge="1" parent="1" source="rrvLgDH6fRj4qbCEKxHJ-58" target="rrvLgDH6fRj4qbCEKxHJ-55">
          <mxGeometry relative="1" as="geometry" />
        </mxCell>
      </root>
    </mxGraphModel>
  </diagram>
</mxfile>
